<svg width="34" height="30" viewBox="0 0 34 30" fill="none" xmlns="http://www.w3.org/2000/svg">
<mask id="path-1-inside-1_16_1456" fill="white">
<path d="M21.3117 14.6447C21.0709 14.6447 20.8473 14.5785 20.6487 14.472V14.4748C20.6487 14.8537 20.5014 15.2094 20.2343 15.4759C19.9671 15.7431 19.6116 15.8903 19.2332 15.8903C18.9889 15.8903 18.7625 15.8225 18.5617 15.7131C18.5415 16.0597 18.4029 16.3837 18.1558 16.6311C17.8886 16.8982 17.5331 17.0455 17.1545 17.0455C16.4022 17.0455 15.7913 16.4541 15.7473 15.7129C15.5145 15.8387 15.2513 15.9047 14.9799 15.8873C14.2398 15.8387 13.6603 15.1993 13.6603 14.4312V8.06459L12.9353 9.32055C12.6592 9.80093 12.1423 10.0992 11.5858 10.0992C11.3147 10.0992 11.0468 10.028 10.8095 9.8921C10.5141 9.72083 10.3028 9.44588 10.2149 9.11696C10.1265 8.78783 10.1722 8.44362 10.3431 8.14863C10.3433 8.14863 12.715 4.04143 12.8597 3.78914C12.8769 3.75121 12.9259 3.64119 12.9676 3.54742C13.0075 3.45789 13.0416 3.36601 13.0744 3.27365C13.7896 1.25437 15.5607 4.19617e-05 17.6966 4.19617e-05C20.4703 4.19617e-05 22.7268 2.44694 22.7268 5.45463L22.727 13.229C22.727 13.6074 22.58 13.9629 22.3131 14.2303C22.0459 14.4975 21.6904 14.6447 21.3116 14.6447L21.3117 14.6447ZM17.6966 0.752184C15.8613 0.752184 14.3984 1.78885 13.7833 3.5252C13.744 3.63546 13.703 3.74572 13.6552 3.85315C13.5164 4.16438 13.5164 4.16438 13.4773 4.20914L13.4721 4.20466C13.2784 4.57007 12.7031 5.56641 10.9943 8.52506C10.9241 8.6464 10.9055 8.78729 10.9413 8.92204C10.9776 9.05681 11.0645 9.17037 11.1849 9.23986C11.5586 9.45449 12.0703 9.31596 12.2833 8.9449L13.7108 6.47345C13.7961 6.3262 13.9685 6.25387 14.1339 6.29864C14.2983 6.3427 14.4126 6.49183 14.4126 6.66193V14.4315C14.4126 14.798 14.6892 15.1144 15.0292 15.1368C15.2252 15.1472 15.408 15.0815 15.5454 14.9443C15.6702 14.8195 15.739 14.6531 15.739 14.4753V9.39389C15.739 9.18609 15.9075 9.01763 16.1153 9.01763C16.3231 9.01763 16.4915 9.18585 16.4915 9.39389L16.4913 15.6303C16.4913 15.9959 16.7889 16.2935 17.1545 16.2935C17.3321 16.2935 17.499 16.2247 17.6241 16.0998C17.7489 15.9747 17.8177 15.8079 17.8177 15.6303V9.39388C17.8177 9.18608 17.9859 9.01763 18.194 9.01763C18.4018 9.01763 18.5702 9.18585 18.5702 9.39388L18.57 14.4168V14.4752C18.57 14.8407 18.8675 15.1382 19.2334 15.1382C19.4108 15.1382 19.5772 15.0692 19.703 14.9438C19.8278 14.8192 19.8966 14.6529 19.8966 14.475V9.39362C19.8966 9.18582 20.0649 9.01737 20.2729 9.01737C20.4807 9.01737 20.6491 9.18559 20.6491 9.39362L20.6487 13.2292C20.6487 13.595 20.9462 13.8926 21.3116 13.8926C21.4895 13.8926 21.6558 13.8236 21.7807 13.699C21.906 13.5736 21.9746 13.4068 21.9746 13.2292L21.9748 5.45481C21.9748 2.86207 20.0557 0.752262 17.6966 0.752262L17.6966 0.752184Z"/>
</mask>
<path d="M21.3117 14.6447C21.0709 14.6447 20.8473 14.5785 20.6487 14.472V14.4748C20.6487 14.8537 20.5014 15.2094 20.2343 15.4759C19.9671 15.7431 19.6116 15.8903 19.2332 15.8903C18.9889 15.8903 18.7625 15.8225 18.5617 15.7131C18.5415 16.0597 18.4029 16.3837 18.1558 16.6311C17.8886 16.8982 17.5331 17.0455 17.1545 17.0455C16.4022 17.0455 15.7913 16.4541 15.7473 15.7129C15.5145 15.8387 15.2513 15.9047 14.9799 15.8873C14.2398 15.8387 13.6603 15.1993 13.6603 14.4312V8.06459L12.9353 9.32055C12.6592 9.80093 12.1423 10.0992 11.5858 10.0992C11.3147 10.0992 11.0468 10.028 10.8095 9.8921C10.5141 9.72083 10.3028 9.44588 10.2149 9.11696C10.1265 8.78783 10.1722 8.44362 10.3431 8.14863C10.3433 8.14863 12.715 4.04143 12.8597 3.78914C12.8769 3.75121 12.9259 3.64119 12.9676 3.54742C13.0075 3.45789 13.0416 3.36601 13.0744 3.27365C13.7896 1.25437 15.5607 4.19617e-05 17.6966 4.19617e-05C20.4703 4.19617e-05 22.7268 2.44694 22.7268 5.45463L22.727 13.229C22.727 13.6074 22.58 13.9629 22.3131 14.2303C22.0459 14.4975 21.6904 14.6447 21.3116 14.6447L21.3117 14.6447ZM17.6966 0.752184C15.8613 0.752184 14.3984 1.78885 13.7833 3.5252C13.744 3.63546 13.703 3.74572 13.6552 3.85315C13.5164 4.16438 13.5164 4.16438 13.4773 4.20914L13.4721 4.20466C13.2784 4.57007 12.7031 5.56641 10.9943 8.52506C10.9241 8.6464 10.9055 8.78729 10.9413 8.92204C10.9776 9.05681 11.0645 9.17037 11.1849 9.23986C11.5586 9.45449 12.0703 9.31596 12.2833 8.9449L13.7108 6.47345C13.7961 6.3262 13.9685 6.25387 14.1339 6.29864C14.2983 6.3427 14.4126 6.49183 14.4126 6.66193V14.4315C14.4126 14.798 14.6892 15.1144 15.0292 15.1368C15.2252 15.1472 15.408 15.0815 15.5454 14.9443C15.6702 14.8195 15.739 14.6531 15.739 14.4753V9.39389C15.739 9.18609 15.9075 9.01763 16.1153 9.01763C16.3231 9.01763 16.4915 9.18585 16.4915 9.39389L16.4913 15.6303C16.4913 15.9959 16.7889 16.2935 17.1545 16.2935C17.3321 16.2935 17.499 16.2247 17.6241 16.0998C17.7489 15.9747 17.8177 15.8079 17.8177 15.6303V9.39388C17.8177 9.18608 17.9859 9.01763 18.194 9.01763C18.4018 9.01763 18.5702 9.18585 18.5702 9.39388L18.57 14.4168V14.4752C18.57 14.8407 18.8675 15.1382 19.2334 15.1382C19.4108 15.1382 19.5772 15.0692 19.703 14.9438C19.8278 14.8192 19.8966 14.6529 19.8966 14.475V9.39362C19.8966 9.18582 20.0649 9.01737 20.2729 9.01737C20.4807 9.01737 20.6491 9.18559 20.6491 9.39362L20.6487 13.2292C20.6487 13.595 20.9462 13.8926 21.3116 13.8926C21.4895 13.8926 21.6558 13.8236 21.7807 13.699C21.906 13.5736 21.9746 13.4068 21.9746 13.2292L21.9748 5.45481C21.9748 2.86207 20.0557 0.752262 17.6966 0.752262L17.6966 0.752184Z" fill="#4CAF4F" stroke="#4CAF4F" stroke-width="2.66667" mask="url(#path-1-inside-1_16_1456)"/>
<mask id="path-2-inside-2_16_1456" fill="white">
<path d="M6.5291 20.0481L11.9888 16.7728C12.6471 16.3775 13.4941 16.5455 13.9162 17.1554C14.0703 17.3776 14.149 17.6365 14.1613 17.9002C14.3648 17.7939 14.5863 17.7362 14.8117 17.7362C14.9272 17.7362 15.0431 17.7506 15.1576 17.7791C15.5244 17.8707 15.8335 18.0999 16.0279 18.4241C16.2225 18.7488 16.2793 19.1292 16.1877 19.4956C16.1031 19.8347 15.8969 20.12 15.6102 20.3158C15.8107 20.434 15.9836 20.5954 16.1066 20.8009C16.3012 21.1255 16.358 21.5058 16.2666 21.8726C16.1749 22.239 15.9457 22.5481 15.621 22.7429L15.6192 22.7441C15.8161 22.8622 15.986 23.0219 16.1076 23.2243C16.3024 23.5489 16.3592 23.9294 16.2675 24.2962C16.1756 24.6628 15.9464 24.9719 15.6222 25.1665L8.95583 29.1658C7.71164 29.912 6.27329 30.1695 4.90636 29.8903C3.52718 29.6085 2.38497 28.8158 1.69046 27.658C0.591379 25.8262 0.756094 23.662 2.11949 22.0102C2.18192 21.9348 2.24341 21.858 2.29925 21.7784C2.35839 21.6943 2.42742 21.5953 2.45098 21.5614C2.5921 21.3093 4.89486 17.1604 4.89462 17.1609C5.12716 16.7413 5.56301 16.5038 6.01252 16.504C6.22221 16.504 6.43495 16.5556 6.63121 16.6645C6.86823 16.7969 7.06731 16.9898 7.20655 17.2224C7.4928 17.6995 7.50293 18.2965 7.2334 18.7797L6.5291 20.0481ZM6.56185 17.6092C6.48882 17.4874 6.38845 17.3903 6.2657 17.3215C6.01196 17.1811 5.69249 17.2725 5.5528 17.5253C3.90505 20.4938 3.34335 21.5055 3.12659 21.8655L3.13153 21.8667C3.11339 21.927 3.11339 21.927 2.91502 22.2104C2.84764 22.3063 2.77437 22.3984 2.69969 22.4891C1.52732 23.9095 1.39119 25.697 2.33521 27.271C2.91997 28.2459 3.8864 28.9143 5.0566 29.1532C6.23952 29.3938 7.48631 29.1699 8.56845 28.5207L15.2355 24.5212C15.3876 24.43 15.4951 24.2851 15.538 24.1134C15.5808 23.9418 15.5542 23.7635 15.4628 23.6113C15.2748 23.298 14.8665 23.195 14.5532 23.3837L11.2642 25.3569C11.0861 25.4638 10.8548 25.4063 10.748 25.228C10.6411 25.0499 10.6988 24.8187 10.8769 24.7118L14.1661 22.7386L15.2343 22.0978C15.3865 22.0064 15.4941 21.8615 15.537 21.6902C15.5799 21.5185 15.5533 21.3399 15.4619 21.1879C15.2736 20.8744 14.8653 20.7723 14.5522 20.9604L10.1948 23.5743C10.0163 23.6815 9.78561 23.6236 9.67865 23.4455C9.57169 23.2673 9.62965 23.0362 9.80752 22.9293L15.1554 19.7211C15.3076 19.6297 15.415 19.4851 15.4579 19.3133C15.5007 19.1418 15.4741 18.9635 15.3829 18.8113C15.2918 18.6593 15.1469 18.5519 14.9751 18.509C14.8024 18.4661 14.6248 18.4927 14.4731 18.5837L13.4831 19.1776C13.4829 19.1776 13.4829 19.1779 13.4826 19.1779H13.4824L9.12525 21.7918C8.94667 21.8993 8.71578 21.8413 8.60905 21.663C8.5021 21.4849 8.56005 21.2537 8.73793 21.1468L13.0953 18.5328C13.2475 18.4414 13.3552 18.2965 13.398 18.1252C13.4452 17.9372 13.4094 17.745 13.2977 17.5838C13.104 17.3037 12.6898 17.2292 12.3758 17.4179L5.71361 21.4147C5.56778 21.5018 5.38095 21.4806 5.25867 21.3626C5.13616 21.2443 5.10859 21.0584 5.19105 20.9098L6.57638 18.4138C6.71539 18.1643 6.70997 17.8562 6.56178 17.6093L6.56185 17.6092Z"/>
</mask>
<path d="M6.5291 20.0481L11.9888 16.7728C12.6471 16.3775 13.4941 16.5455 13.9162 17.1554C14.0703 17.3776 14.149 17.6365 14.1613 17.9002C14.3648 17.7939 14.5863 17.7362 14.8117 17.7362C14.9272 17.7362 15.0431 17.7506 15.1576 17.7791C15.5244 17.8707 15.8335 18.0999 16.0279 18.4241C16.2225 18.7488 16.2793 19.1292 16.1877 19.4956C16.1031 19.8347 15.8969 20.12 15.6102 20.3158C15.8107 20.434 15.9836 20.5954 16.1066 20.8009C16.3012 21.1255 16.358 21.5058 16.2666 21.8726C16.1749 22.239 15.9457 22.5481 15.621 22.7429L15.6192 22.7441C15.8161 22.8622 15.986 23.0219 16.1076 23.2243C16.3024 23.5489 16.3592 23.9294 16.2675 24.2962C16.1756 24.6628 15.9464 24.9719 15.6222 25.1665L8.95583 29.1658C7.71164 29.912 6.27329 30.1695 4.90636 29.8903C3.52718 29.6085 2.38497 28.8158 1.69046 27.658C0.591379 25.8262 0.756094 23.662 2.11949 22.0102C2.18192 21.9348 2.24341 21.858 2.29925 21.7784C2.35839 21.6943 2.42742 21.5953 2.45098 21.5614C2.5921 21.3093 4.89486 17.1604 4.89462 17.1609C5.12716 16.7413 5.56301 16.5038 6.01252 16.504C6.22221 16.504 6.43495 16.5556 6.63121 16.6645C6.86823 16.7969 7.06731 16.9898 7.20655 17.2224C7.4928 17.6995 7.50293 18.2965 7.2334 18.7797L6.5291 20.0481ZM6.56185 17.6092C6.48882 17.4874 6.38845 17.3903 6.2657 17.3215C6.01196 17.1811 5.69249 17.2725 5.5528 17.5253C3.90505 20.4938 3.34335 21.5055 3.12659 21.8655L3.13153 21.8667C3.11339 21.927 3.11339 21.927 2.91502 22.2104C2.84764 22.3063 2.77437 22.3984 2.69969 22.4891C1.52732 23.9095 1.39119 25.697 2.33521 27.271C2.91997 28.2459 3.8864 28.9143 5.0566 29.1532C6.23952 29.3938 7.48631 29.1699 8.56845 28.5207L15.2355 24.5212C15.3876 24.43 15.4951 24.2851 15.538 24.1134C15.5808 23.9418 15.5542 23.7635 15.4628 23.6113C15.2748 23.298 14.8665 23.195 14.5532 23.3837L11.2642 25.3569C11.0861 25.4638 10.8548 25.4063 10.748 25.228C10.6411 25.0499 10.6988 24.8187 10.8769 24.7118L14.1661 22.7386L15.2343 22.0978C15.3865 22.0064 15.4941 21.8615 15.537 21.6902C15.5799 21.5185 15.5533 21.3399 15.4619 21.1879C15.2736 20.8744 14.8653 20.7723 14.5522 20.9604L10.1948 23.5743C10.0163 23.6815 9.78561 23.6236 9.67865 23.4455C9.57169 23.2673 9.62965 23.0362 9.80752 22.9293L15.1554 19.7211C15.3076 19.6297 15.415 19.4851 15.4579 19.3133C15.5007 19.1418 15.4741 18.9635 15.3829 18.8113C15.2918 18.6593 15.1469 18.5519 14.9751 18.509C14.8024 18.4661 14.6248 18.4927 14.4731 18.5837L13.4831 19.1776C13.4829 19.1776 13.4829 19.1779 13.4826 19.1779H13.4824L9.12525 21.7918C8.94667 21.8993 8.71578 21.8413 8.60905 21.663C8.5021 21.4849 8.56005 21.2537 8.73793 21.1468L13.0953 18.5328C13.2475 18.4414 13.3552 18.2965 13.398 18.1252C13.4452 17.9372 13.4094 17.745 13.2977 17.5838C13.104 17.3037 12.6898 17.2292 12.3758 17.4179L5.71361 21.4147C5.56778 21.5018 5.38095 21.4806 5.25867 21.3626C5.13616 21.2443 5.10859 21.0584 5.19105 20.9098L6.57638 18.4138C6.71539 18.1643 6.70997 17.8562 6.56178 17.6093L6.56185 17.6092Z" fill="#4CAF4F" stroke="#4CAF4F" stroke-width="2.66667" mask="url(#path-2-inside-2_16_1456)"/>
<mask id="path-3-inside-3_16_1456" fill="white">
<path d="M32.6181 27.6577C31.9238 28.8157 30.7819 29.6083 29.4025 29.8901C28.0353 30.1688 26.5974 29.9117 25.353 29.1656L18.686 25.1661C18.3616 24.9715 18.1321 24.6624 18.0402 24.2953C17.949 23.9289 18.006 23.5484 18.2004 23.2243C18.3217 23.0216 18.4918 22.8619 18.689 22.7439L18.6871 22.7427C18.3627 22.5481 18.1333 22.239 18.0419 21.8724C17.95 21.5058 18.007 21.125 18.2016 20.8004C18.3269 20.5919 18.4987 20.4289 18.6947 20.3132C18.4101 20.1174 18.2051 19.8331 18.1208 19.4957C18.0289 19.1288 18.0859 18.7483 18.2805 18.4242C18.4749 18.0997 18.7842 17.8705 19.1508 17.7789C19.2653 17.7501 19.3815 17.736 19.4965 17.736C19.7222 17.7362 19.9436 17.7935 20.1472 17.9C20.1597 17.6363 20.2381 17.3774 20.3922 17.1552C20.8146 16.5458 21.6609 16.3771 22.3201 16.7726L27.7796 20.0474L27.0759 18.7799C26.8059 18.296 26.8158 17.699 27.1021 17.2216C27.2415 16.9893 27.4408 16.7964 27.679 16.6628C27.8748 16.5544 28.0869 16.5031 28.296 16.5031C28.7453 16.5033 29.1817 16.7403 29.4139 17.1599C30.2235 18.6185 31.7511 21.3694 31.8585 21.5614C31.8813 21.5946 31.9504 21.6936 32.0095 21.7777C32.0658 21.8575 32.1266 21.9339 32.1895 22.0097C33.5527 23.6622 33.7171 25.8262 32.6181 27.6578L32.6181 27.6577ZM31.6091 22.4892C31.5341 22.3985 31.4606 22.3059 31.3937 22.2105C31.1902 21.9217 31.185 21.9141 31.1697 21.8385C30.9317 21.4448 30.3512 20.3997 28.7555 17.5249C28.6156 17.2726 28.2975 17.1805 28.0443 17.3204C27.9196 17.3901 27.8195 17.4874 27.7465 17.6093C27.5985 17.8559 27.5928 18.1641 27.7326 18.4143L29.1174 20.9095C29.2001 21.0584 29.1725 21.2441 29.0503 21.3623C28.9282 21.4808 28.7416 21.5016 28.5951 21.4144L21.9329 17.4177C21.6189 17.2295 21.2049 17.3032 21.0108 17.5836C20.8991 17.7447 20.8635 17.937 20.9102 18.1247C20.9531 18.2963 21.0607 18.4409 21.2132 18.5323C21.2136 18.5326 21.2139 18.533 21.2143 18.5333L25.5703 21.1465C25.7484 21.2535 25.8062 21.4844 25.6992 21.6627C25.5922 21.8406 25.3616 21.8988 25.183 21.7916L19.8352 18.5835C19.6834 18.4925 19.5048 18.4657 19.3333 18.5088C19.1613 18.5517 19.0167 18.6591 18.9255 18.8115C18.8341 18.9635 18.8077 19.1418 18.8501 19.3133C18.893 19.4849 19.0007 19.6297 19.1529 19.7212L20.1935 20.3453L24.5005 22.9293C24.6786 23.0363 24.7363 23.2672 24.6293 23.4455C24.5224 23.6234 24.2917 23.6814 24.1131 23.5744L19.7562 20.9604C19.4429 20.7719 19.0348 20.8742 18.8464 21.188C18.755 21.3402 18.7286 21.5186 18.771 21.6901C18.8139 21.8616 18.9215 22.0062 19.0739 22.0979L20.1422 22.7387L23.4308 24.7119C23.609 24.8188 23.6667 25.0497 23.5597 25.2281C23.4528 25.4059 23.2221 25.4644 23.0435 25.3569L19.7548 23.3838C19.6031 23.2928 19.4252 23.266 19.2528 23.3091C19.0813 23.352 18.9361 23.4594 18.845 23.6114C18.7538 23.7636 18.7272 23.9421 18.7696 24.1134C18.8124 24.2849 18.9201 24.4296 19.0725 24.5212L25.7395 28.5207C26.8214 29.1698 28.0691 29.3945 29.2514 29.1533C30.4213 28.9144 31.3878 28.246 31.9725 27.2711C32.9175 25.6968 32.7816 23.9091 31.6095 22.4892L31.6091 22.4892Z"/>
</mask>
<path d="M32.6181 27.6577C31.9238 28.8157 30.7819 29.6083 29.4025 29.8901C28.0353 30.1688 26.5974 29.9117 25.353 29.1656L18.686 25.1661C18.3616 24.9715 18.1321 24.6624 18.0402 24.2953C17.949 23.9289 18.006 23.5484 18.2004 23.2243C18.3217 23.0216 18.4918 22.8619 18.689 22.7439L18.6871 22.7427C18.3627 22.5481 18.1333 22.239 18.0419 21.8724C17.95 21.5058 18.007 21.125 18.2016 20.8004C18.3269 20.5919 18.4987 20.4289 18.6947 20.3132C18.4101 20.1174 18.2051 19.8331 18.1208 19.4957C18.0289 19.1288 18.0859 18.7483 18.2805 18.4242C18.4749 18.0997 18.7842 17.8705 19.1508 17.7789C19.2653 17.7501 19.3815 17.736 19.4965 17.736C19.7222 17.7362 19.9436 17.7935 20.1472 17.9C20.1597 17.6363 20.2381 17.3774 20.3922 17.1552C20.8146 16.5458 21.6609 16.3771 22.3201 16.7726L27.7796 20.0474L27.0759 18.7799C26.8059 18.296 26.8158 17.699 27.1021 17.2216C27.2415 16.9893 27.4408 16.7964 27.679 16.6628C27.8748 16.5544 28.0869 16.5031 28.296 16.5031C28.7453 16.5033 29.1817 16.7403 29.4139 17.1599C30.2235 18.6185 31.7511 21.3694 31.8585 21.5614C31.8813 21.5946 31.9504 21.6936 32.0095 21.7777C32.0658 21.8575 32.1266 21.9339 32.1895 22.0097C33.5527 23.6622 33.7171 25.8262 32.6181 27.6578L32.6181 27.6577ZM31.6091 22.4892C31.5341 22.3985 31.4606 22.3059 31.3937 22.2105C31.1902 21.9217 31.185 21.9141 31.1697 21.8385C30.9317 21.4448 30.3512 20.3997 28.7555 17.5249C28.6156 17.2726 28.2975 17.1805 28.0443 17.3204C27.9196 17.3901 27.8195 17.4874 27.7465 17.6093C27.5985 17.8559 27.5928 18.1641 27.7326 18.4143L29.1174 20.9095C29.2001 21.0584 29.1725 21.2441 29.0503 21.3623C28.9282 21.4808 28.7416 21.5016 28.5951 21.4144L21.9329 17.4177C21.6189 17.2295 21.2049 17.3032 21.0108 17.5836C20.8991 17.7447 20.8635 17.937 20.9102 18.1247C20.9531 18.2963 21.0607 18.4409 21.2132 18.5323C21.2136 18.5326 21.2139 18.533 21.2143 18.5333L25.5703 21.1465C25.7484 21.2535 25.8062 21.4844 25.6992 21.6627C25.5922 21.8406 25.3616 21.8988 25.183 21.7916L19.8352 18.5835C19.6834 18.4925 19.5048 18.4657 19.3333 18.5088C19.1613 18.5517 19.0167 18.6591 18.9255 18.8115C18.8341 18.9635 18.8077 19.1418 18.8501 19.3133C18.893 19.4849 19.0007 19.6297 19.1529 19.7212L20.1935 20.3453L24.5005 22.9293C24.6786 23.0363 24.7363 23.2672 24.6293 23.4455C24.5224 23.6234 24.2917 23.6814 24.1131 23.5744L19.7562 20.9604C19.4429 20.7719 19.0348 20.8742 18.8464 21.188C18.755 21.3402 18.7286 21.5186 18.771 21.6901C18.8139 21.8616 18.9215 22.0062 19.0739 22.0979L20.1422 22.7387L23.4308 24.7119C23.609 24.8188 23.6667 25.0497 23.5597 25.2281C23.4528 25.4059 23.2221 25.4644 23.0435 25.3569L19.7548 23.3838C19.6031 23.2928 19.4252 23.266 19.2528 23.3091C19.0813 23.352 18.9361 23.4594 18.845 23.6114C18.7538 23.7636 18.7272 23.9421 18.7696 24.1134C18.8124 24.2849 18.9201 24.4296 19.0725 24.5212L25.7395 28.5207C26.8214 29.1698 28.0691 29.3945 29.2514 29.1533C30.4213 28.9144 31.3878 28.246 31.9725 27.2711C32.9175 25.6968 32.7816 23.9091 31.6095 22.4892L31.6091 22.4892Z" fill="#4CAF4F" stroke="#4CAF4F" stroke-width="2.66667" mask="url(#path-3-inside-3_16_1456)"/>
</svg>
